<svg width="60" height="60" viewBox="0 0 60 60" fill="none" xmlns="http://www.w3.org/2000/svg">
<path d="M35 27.5C35 28.875 33.875 30 32.5 30H10C8.625 30 7.5 28.875 7.5 27.5C7.5 26.125 8.625 25 10 25H32.5C33.875 25 35 26.125 35 27.5ZM7.5 17.5C7.5 18.875 8.625 20 10 20H32.5C33.875 20 35 18.875 35 17.5C35 16.125 33.875 15 32.5 15H10C8.625 15 7.5 16.125 7.5 17.5ZM25 37.5C25 36.125 23.875 35 22.5 35H10C8.625 35 7.5 36.125 7.5 37.5C7.5 38.875 8.625 40 10 40H22.5C23.875 40 25 38.875 25 37.5ZM45.025 32.175L46.8 30.4C47.775 29.425 49.35 29.425 50.325 30.4L52.1 32.175C53.075 33.15 53.075 34.725 52.1 35.7L50.325 37.475L45.025 32.175ZM43.25 33.95L30.35 46.85C30.125 47.075 30 47.375 30 47.725V51.25C30 51.95 30.55 52.5 31.25 52.5H34.775C35.1 52.5 35.425 52.375 35.65 52.125L48.55 39.225L43.25 33.95Z" fill="#CACACC"/>
</svg>
