<svg width="60" height="60" viewBox="0 0 60 60" fill="none" xmlns="http://www.w3.org/2000/svg">
<path fill-rule="evenodd" clip-rule="evenodd" d="M21.8985 14.85C21.9457 16.2669 22.8227 17.3 24.1027 17.3H34.9589V45.32C34.9589 47.6397 35.3801 48.145 35.5136 48.2542C35.5815 48.3098 35.7221 48.3903 36.0833 48.442C36.468 48.4969 36.937 48.5 37.6173 48.5C38.1632 48.5 38.5171 48.4962 38.8092 48.4485C39.0693 48.406 39.1621 48.3446 39.209 48.3034C39.3281 48.1989 39.7414 47.6744 39.7555 45.4402V17.3H50.0919C51.1593 17.3 51.7242 16.95 52.0282 16.5991C52.3563 16.2204 52.5375 15.6576 52.4937 14.9997C52.4011 13.6101 51.4319 12.5 50.0919 12.5H24.1027C23.214 12.5 22.7073 12.8154 22.4046 13.1788C22.0719 13.5782 21.8759 14.1735 21.8985 14.85ZM42.7558 45.32C42.7558 45.365 42.7557 45.4097 42.7554 45.4541C42.7414 47.7712 42.3662 49.5237 41.1883 50.5578C40.5867 51.086 39.904 51.3093 39.2931 51.4092C38.7355 51.5003 38.1466 51.5001 37.6712 51.5H37.5589C36.9543 51.5001 36.2776 51.5002 35.6589 51.4118C34.9968 51.3172 34.2602 51.1052 33.6134 50.5757C32.3175 49.515 31.9589 47.6803 31.9589 45.32V20.3H24.1027C20.705 20.3 18.983 17.4331 18.9002 14.95C18.8577 13.6765 19.214 12.3218 20.0995 11.2587C21.015 10.1596 22.3925 9.5 24.1027 9.5H50.0919C53.4301 9.5 55.3198 12.2899 55.4871 14.8003C55.5732 16.0924 55.2346 17.4796 54.2957 18.5634C53.3327 19.675 51.8834 20.3 50.0919 20.3H42.7555L42.7558 45.32ZM7.04862 29.6444C7.355 30.0276 7.80476 30.3 8.50856 30.3H14.1669V46.36C14.1669 47.0269 14.4298 47.4658 14.8176 47.7737C15.2432 48.1114 15.8767 48.3264 16.5753 48.331C17.2742 48.3357 17.8995 48.1293 18.3162 47.8004C18.6927 47.5033 18.9638 47.0634 18.9638 46.36V30.3H24.6222C25.123 30.3 25.468 30.093 25.7387 29.7122C26.0411 29.2867 26.241 28.634 26.241 27.9C26.241 27.166 26.0411 26.5133 25.7387 26.0878C25.468 25.707 25.123 25.5 24.6222 25.5H8.50856C7.8048 25.5 7.35503 25.7724 7.04864 26.1556C6.71173 26.5769 6.5 27.2045 6.5 27.9C6.5 28.5955 6.71172 29.2231 7.04862 29.6444ZM4.70566 24.2819C5.5688 23.2026 6.87331 22.5 8.50856 22.5H24.6222C26.2006 22.5 27.415 23.268 28.1839 24.3497C28.921 25.3867 29.241 26.684 29.241 27.9C29.241 29.116 28.921 30.4133 28.1839 31.4503C27.415 32.532 26.2006 33.3 24.6222 33.3H21.9638V46.36C21.9638 47.9966 21.2603 49.2987 20.1748 50.1554C19.1296 50.9802 17.8057 51.3393 16.5553 51.331C15.3047 51.3226 13.9891 50.9461 12.9527 50.1236C11.8786 49.2712 11.1669 47.9811 11.1669 46.36V33.3H8.50856C6.87329 33.3 5.56877 32.5974 4.70563 31.5181C3.87302 30.4769 3.49999 29.1545 3.5 27.9C3.50001 26.6455 3.87305 25.3231 4.70566 24.2819Z" fill="#CACACC"/>
</svg>
