<svg width="50" class="heading-icon-svg" height="50" viewBox="0 0 40 32" fill="none" xmlns="http://www.w3.org/2000/svg">
    <path d="M12.75 3.45825C12.75 5.18742 14.1458 6.58325 15.875 6.58325H23.1667V28.4583C23.1667 30.1874 24.5625 31.5833 26.2917 31.5833C28.0208 31.5833 29.4167 30.1874 29.4167 28.4583V6.58325H36.7083C38.4375 6.58325 39.8333 5.18742 39.8333 3.45825C39.8333 1.72909 38.4375 0.333252 36.7083 0.333252H15.875C14.1458 0.333252 12.75 1.72909 12.75 3.45825ZM3.375 16.9999H6.5V28.4583C6.5 30.1874 7.89583 31.5833 9.625 31.5833C11.3542 31.5833 12.75 30.1874 12.75 28.4583V16.9999H15.875C17.6042 16.9999 19 15.6041 19 13.8749C19 12.1458 17.6042 10.7499 15.875 10.7499H3.375C1.64583 10.7499 0.25 12.1458 0.25 13.8749C0.25 15.6041 1.64583 16.9999 3.375 16.9999Z" fill="#999999" />
</svg>