<svg width="60" height="60" viewBox="0 0 60 60" fill="none" xmlns="http://www.w3.org/2000/svg">
<path d="M29.9999 12.3224L24.6966 17.6257C23.7243 18.5979 23.7243 20.1889 24.6966 21.1612C25.6689 22.1335 27.2599 22.1335 28.2321 21.1612L33.5354 15.8579C36.4523 12.9411 41.2252 12.9411 44.142 15.8579C47.0589 18.7747 47.0589 23.5477 44.142 26.4645L38.8387 31.7678C37.8665 32.7401 37.8665 34.3311 38.8387 35.3033C39.811 36.2756 41.402 36.2756 42.3743 35.3033L47.6776 30C52.5566 25.121 52.5566 17.2014 47.6776 12.3224C42.7985 7.44332 34.8789 7.44332 29.9999 12.3224ZM22.9288 37.0711C23.9011 38.0434 25.4921 38.0434 26.4644 37.0711L37.071 26.4645C38.0432 25.4922 38.0432 23.9012 37.071 22.929C36.0987 21.9567 34.5077 21.9567 33.5354 22.929L22.9288 33.5356C21.9566 34.5078 21.9566 36.0988 22.9288 37.0711ZM31.7677 38.8389L26.4644 44.1422C23.5476 47.059 18.7746 47.059 15.8578 44.1422C12.941 41.2254 12.941 36.4524 15.8578 33.5356L21.1611 28.2323C22.1333 27.26 22.1333 25.669 21.1611 24.6967C20.1888 23.7245 18.5978 23.7245 17.6255 24.6967L12.3222 30C7.4432 34.8791 7.4432 42.7987 12.3222 47.6777C17.2013 52.5567 25.1209 52.5567 29.9999 47.6777L35.3032 42.3744C36.2755 41.4021 36.2755 39.8111 35.3032 38.8389C34.3309 37.8666 32.7399 37.8666 31.7677 38.8389Z" fill="#CACACC"/>
</svg>
