<svg width="60" height="60" viewBox="0 0 60 60" fill="none" xmlns="http://www.w3.org/2000/svg">
<path d="M45 50H10V15H22.1667C22.719 15 23.1667 14.5523 23.1667 14V11C23.1667 10.4477 22.719 10 22.1667 10H10C7.25 10 5 12.25 5 15V50C5 52.75 7.25 55 10 55H45C47.75 55 50 52.75 50 50V37.8333C50 37.281 49.5523 36.8333 49 36.8333H46C45.4477 36.8333 45 37.281 45 37.8333V50ZM26.2887 41.0919C25.8966 41.5967 25.138 41.6091 24.7297 41.1174L21.4192 37.1313C21.0112 36.64 20.2535 36.6519 19.8611 37.1556L15.0078 43.3854C14.4962 44.0422 14.9642 45 15.7967 45H39.2475C40.072 45 40.5422 44.0583 40.0468 43.3992L33.1863 34.2711C32.7902 33.7442 32.0016 33.7379 31.5972 34.2585L26.2887 41.0919Z" fill="#CACACC"/>
<path d="M53.0998 19.0597L49.2878 15.2478C48.589 14.5489 47.4454 14.5489 46.7465 15.2478C46.0477 15.9467 46.0477 17.0902 46.7465 17.7891L50.5585 21.601C52.6551 23.6976 52.6551 27.1284 50.5585 29.2249C48.4619 31.3215 45.0312 31.3215 42.9346 29.2249L39.1226 25.413C38.4238 24.7141 37.2802 24.7141 36.5813 25.413C35.8825 26.1118 35.8825 27.2554 36.5813 27.9543L40.3933 31.7662C43.9003 35.2732 49.5928 35.2732 53.0998 31.7662C56.6068 28.2592 56.6068 22.5667 53.0998 19.0597ZM35.3107 13.9771C34.6118 14.676 34.6118 15.8196 35.3107 16.5184L42.9346 24.1423C43.6334 24.8412 44.777 24.8412 45.4759 24.1423C46.1747 23.4435 46.1747 22.2999 45.4759 21.601L37.852 13.9771C37.1531 13.2783 36.0095 13.2783 35.3107 13.9771ZM34.04 20.3304L30.2281 16.5184C28.1315 14.4219 28.1315 10.9911 30.2281 8.89455C32.3247 6.79797 35.7554 6.79797 37.852 8.89455L41.6639 12.7065C42.3628 13.4054 43.5064 13.4054 44.2052 12.7065C44.9041 12.0076 44.9041 10.8641 44.2052 10.1652L40.3933 6.35325C36.8863 2.84625 31.1938 2.84625 27.6868 6.35325C24.1798 9.86024 24.1798 15.5527 27.6868 19.0597L31.4987 22.8717C32.1976 23.5705 33.3412 23.5705 34.04 22.8717C34.7389 22.1728 34.7389 21.0292 34.04 20.3304Z" fill="#CACACC"/>
</svg>
