<svg width="50" height="50" viewBox="0 0 50 50" fill="none" xmlns="http://www.w3.org/2000/svg">
<path d="M7 9C7 11.2133 8.80385 13 11.0385 13H20.4615V41L28.5385 33V13H37.9615C40.1962 13 42 11.2133 42 9C42 6.78667 40.1962 5 37.9615 5H11.0385C8.80385 5 7 6.78667 7 9Z" fill="#999999"/>
<path d="M23 42.2807V46.3334C23 46.7067 23.2933 47 23.6666 47H27.7193C27.8927 47 28.066 46.9333 28.1859 46.8L42.7439 32.2554L37.7446 27.2561L23.2 41.8007C23.0667 41.934 23 42.094 23 42.2807ZM46.6101 28.3893C47.13 27.8693 47.13 27.0294 46.6101 26.5095L43.4905 23.3899C42.9706 22.87 42.1307 22.87 41.6107 23.3899L39.1711 25.8296L44.1704 30.8289L46.6101 28.3893V28.3893Z" fill="#999999"/>
</svg>
