<svg width="36" height="36" viewBox="0 0 36 36" fill="none" xmlns="http://www.w3.org/2000/svg">
    <path d="M18 3.26863L13.5806 7.68805C12.7703 8.49828 12.7703 9.8241 13.5806 10.6343C14.3908 11.4446 15.7166 11.4446 16.5268 10.6343L20.9463 6.21491C23.3769 3.78423 27.3544 3.78423 29.7851 6.21491C32.2158 8.64559 32.2158 12.6231 29.7851 15.0537L25.3657 19.4732C24.5555 20.2834 24.5555 21.6092 25.3657 22.4194C26.1759 23.2297 27.5017 23.2297 28.312 22.4194L32.7314 18C36.7972 13.9342 36.7972 7.3345 32.7314 3.26863C28.6655 -0.79723 22.0658 -0.79723 18 3.26863ZM12.1074 23.8926C12.9177 24.7028 14.2435 24.7028 15.0537 23.8926L23.8925 15.0537C24.7028 14.2435 24.7028 12.9177 23.8925 12.1075C23.0823 11.2972 21.7565 11.2972 20.9463 12.1075L12.1074 20.9463C11.2972 21.7565 11.2972 23.0824 12.1074 23.8926ZM19.4731 25.3657L15.0537 29.7851C12.623 32.2158 8.64555 32.2158 6.21487 29.7851C3.78419 27.3545 3.78419 23.377 6.21487 20.9463L10.6343 16.5269C11.4445 15.7167 11.4445 14.3908 10.6343 13.5806C9.82406 12.7704 8.49823 12.7704 7.68801 13.5806L3.26859 18C-0.797275 22.0659 -0.797275 28.6656 3.26859 32.7314C7.33445 36.7973 13.9341 36.7973 18 32.7314L22.4194 28.312C23.2296 27.5018 23.2296 26.1759 22.4194 25.3657C21.6092 24.5555 20.2833 24.5555 19.4731 25.3657Z" fill="#999999" />
</svg>