<svg width="60" height="60" viewBox="0 0 60 60" fill="none" xmlns="http://www.w3.org/2000/svg">
<path d="M47 13V48H12V13H47ZM47 8H12C9.25 8 7 10.25 7 13V48C7 50.75 9.25 53 12 53H47C49.75 53 52 50.75 52 48V13C52 10.25 49.75 8 47 8ZM35.637 31.198C35.2408 30.6704 34.4513 30.6644 34.047 31.1858L28.1154 38.8376C27.723 39.3439 26.9623 39.3557 26.5542 38.8619L22.7948 34.3119C22.387 33.8184 21.6271 33.8298 21.2343 34.3352L15.7541 41.3863C15.2436 42.0433 15.7117 43 16.5437 43H42.4984C43.3228 43 43.7931 42.0587 43.2981 41.3995L35.637 31.198Z" fill="#CACACC"/>
</svg>
